<svg width="41" height="43" viewBox="0 0 41 43" fill="none" xmlns="http://www.w3.org/2000/svg">
<g id="section-icon-1.svg">
<g id="Group">
<path id="Vector" fill-rule="evenodd" clip-rule="evenodd" d="M6.48509 4.44497C6.48509 3.53197 5.73209 2.79297 4.80309 2.79297C3.87409 2.79297 3.12109 3.53297 3.12109 4.44497V38.315C3.12109 39.228 3.87409 39.967 4.80309 39.967C5.73309 39.967 6.48509 39.227 6.48509 38.315V4.44497Z" fill="#E5E7FD"/>
<path id="Vector_2" d="M31.5859 28.9802C33.9109 28.9802 35.7959 30.8312 35.7959 33.1162M31.5859 28.9802C29.2609 28.9802 27.3759 30.8312 27.3759 33.1162M31.5859 28.9802V26.2222M35.7959 33.1162C35.7959 35.4012 33.9109 37.2522 31.5859 37.2522M35.7959 33.1162H38.6029M31.5859 37.2522C29.2609 37.2522 27.3759 35.4012 27.3759 33.1162M31.5859 37.2522V40.0102M27.3759 33.1162H24.5679M34.5629 30.1912L36.5489 28.2412M34.5629 36.0402L36.5489 37.9912M28.6099 36.0402L26.6229 37.9912M28.6099 30.1912L26.6229 28.2412" stroke="#28CC8B" stroke-width="3" stroke-linecap="round" stroke-linejoin="round"/>
<path id="Vector_3" d="M19.0989 39.898H5.62892C3.85692 39.898 2.41992 38.488 2.41992 36.747V5.94497C2.41992 4.20397 3.85692 2.79297 5.62892 2.79297H33.5489C35.3219 2.79297 36.7579 4.20397 36.7579 5.94497V20.554M24.7399 11.226H28.1729M24.7399 17.972H28.1729M11.0049 24.719H21.8299M11.0049 31.465H17.8719" stroke="#5271FF" stroke-width="3" stroke-linecap="round" stroke-linejoin="round"/>
<path id="Vector_4" fill-rule="evenodd" clip-rule="evenodd" d="M12.4429 11.2261H16.4349C17.2279 11.2261 17.8719 11.8591 17.8719 12.6391V16.5601C17.8719 17.3401 17.2279 17.9731 16.4349 17.9731H12.4429C12.0649 17.9763 11.701 17.8292 11.4314 17.5643C11.1617 17.2993 11.0083 16.9381 11.0049 16.5601V12.6401C11.0049 11.8601 11.6489 11.2271 12.4429 11.2271V11.2261Z" stroke="#5271FF" stroke-width="3" stroke-linecap="round" stroke-linejoin="round"/>
</g>
</g>
</svg>
