<svg width="17" height="18" viewBox="0 0 17 18" fill="none" xmlns="http://www.w3.org/2000/svg">
<path id="Vector" d="M16.0625 7.51488H9.87501V1.32739C9.87501 0.947549 9.56735 0.639893 9.18749 0.639893H7.81251C7.43265 0.639893 7.12499 0.947549 7.12499 1.32739V7.51488H0.937499C0.557656 7.51488 0.25 7.82254 0.25 8.2024V9.57738C0.25 9.95724 0.557656 10.2649 0.937499 10.2649H7.12499V16.4524C7.12499 16.8322 7.43265 17.1399 7.81251 17.1399H9.18749C9.56735 17.1399 9.87501 16.8322 9.87501 16.4524V10.2649H16.0625C16.4423 10.2649 16.75 9.95724 16.75 9.57738V8.2024C16.75 7.82254 16.4423 7.51488 16.0625 7.51488Z" fill="white"/>
</svg>
